<svg xmlns="http://www.w3.org/2000/svg" xmlns:xlink="http://www.w3.org/1999/xlink" width="72.6" height="94.516" viewBox="0 0 72.6 94.516">
  <defs>
    <clipPath id="clip-path">
      <path id="路径_85" data-name="路径 85" d="M0,0H72.6V-72.484H0Z" fill="none"/>
    </clipPath>
  </defs>
  <g id="组_167" data-name="组 167" transform="translate(-632 -555.484)">
    <g id="组_126" data-name="组 126" transform="translate(632 627.968)">
      <g id="组_125" data-name="组 125" clip-path="url(#clip-path)">
        <g id="组_123" data-name="组 123" transform="translate(30.8 -13.086)">
          <path id="路径_83" data-name="路径 83" d="M0,0A28.6,28.6,0,0,0,28.6-28.6,28.6,28.6,0,0,0,0-57.2,28.6,28.6,0,0,0-28.6-28.6,28.6,28.6,0,0,0,0,0Z" fill="none" stroke="#000" stroke-width="4.4"/>
        </g>
        <g id="组_124" data-name="组 124" transform="translate(51.354 -21.246)">
          <path id="路径_84" data-name="路径 84" d="M0,0,19.691,19.687" fill="none" stroke="#000" stroke-width="4.4"/>
        </g>
      </g>
    </g>
    <g id="组_166" data-name="组 166" transform="translate(635 650)">
      <g id="组_194" data-name="组 194">
        <g id="组_164" data-name="组 164" transform="translate(33.5)">
          <path id="路径_95" data-name="路径 95" d="M0,0C18.5,0,33.5-1.344,33.5-3S18.5-6,0-6-33.5-4.656-33.5-3-18.5,0,0,0" opacity="0.004"/>
        </g>
      </g>
    </g>
  </g>
</svg>
