<?xml version="1.0" encoding="UTF-8"?>
<svg width="280px" height="408px" viewBox="0 0 280 408" version="1.1" xmlns="http://www.w3.org/2000/svg" xmlns:xlink="http://www.w3.org/1999/xlink">
    <!-- Generator: Sketch 57 (83077) - https://sketch.com -->
    <title>路径_5</title>
    <desc>Created with Sketch.</desc>
    <g id="Page-1" stroke="none" stroke-width="1" fill="none" fill-rule="evenodd">
        <g id="Artboard" transform="translate(-50.000000, -234.000000)" stroke="#FFFFFF" stroke-width="3">
            <path d="M114.17,429.882 C114.703,429.934 116.46,430.082 119.036,430.082 C131.306,430.082 171.343,426.362 171.343,378.489 L171.343,375.689 L145.743,375.689 L145.743,378.489 C145.743,401.648 127.285,404.149 119.349,404.149 C117.821,404.149 116.873,404.049 116.869,404.049 L116.56,404.032 C98.282,404.032 89.735,394.655 86.129,388.619 L86.129,281.712 L105.195,262.405 C108.943719,261.738658 112.743523,261.401374 116.551,261.397 C143.123,261.397 145.991,275.685 145.991,281.828 L145.991,284.628 L171.591,284.628 L171.591,281.828 C171.566263,278.411301 171.212632,275.004919 170.535,271.656 C170.098,269.296 162.985,235.501 117.264,235.501 C116.698,235.511 103.276,235.794 92.546,238.901 L91.846,239.101 L60.54,270.801 L60.54,394.163 L60.705,394.622 C60.829,394.975 73.795,429.8 114.17,429.882 Z M326.782,264.905 L302.148,264.905 L191.87,415.856 L216.514,415.856 L326.782,264.905 Z M302.148,488.605 L283.609,513.982 L257.988,444.332 L238.831,444.332 L190.957,572.399 L190.957,639.482 L191.908,639.482 L191.853,639.555 L216.512,639.555 L273.712,561.255 L279.493,576.955 L280.012,639.48 L305.625,639.48 L305.1,572.393 L291.86,536.41 L326.782,488.61 L302.148,488.605 Z M265.453,538.832 L216.57,605.744 L216.57,576.954 L248.262,492.14 L265.453,538.832 Z M163.202,488.606 L144.702,513.929 L119.102,444.329 L99.946,444.329 L52.07,572.399 L52.07,639.482 L52.997,639.482 L52.941,639.559 L77.57,639.559 L134.806,561.206 L140.606,576.961 L141.124,639.486 L166.738,639.486 L166.209,572.399 L152.953,536.36 L187.838,488.606 L163.202,488.606 Z M126.549,538.782 L77.685,605.667 L77.685,576.954 L109.37,492.138 L126.549,538.782 Z" id="路径_5"></path>
        </g>
    </g>
</svg>